HIERARCHY
ROOT Hips
{
	OFFSET -14.64140 90.27770 -84.91600
	CHANNELS 6 Xposition Yposition Zposition Zrotation Xrotation Yrotation
	JOINT Spine
	{
		OFFSET 0.00000 13.20850 -1.60436
		CHANNELS 3 Zrotation Xrotation Yrotation
		JOINT Spine1
		{
			OFFSET 0.00000 8.61716 0.00000
			CHANNELS 3 Zrotation Xrotation Yrotation
			JOINT Spine2
			{
				OFFSET 0.00000 8.61717 0.00000
				CHANNELS 3 Zrotation Xrotation Yrotation
				JOINT Spine3
				{
					OFFSET 0.00000 8.61717 0.00000
					CHANNELS 3 Zrotation Xrotation Yrotation
					JOINT Neck
					{
						OFFSET 0.00000 11.07920 1.10792
						CHANNELS 3 Zrotation Xrotation Yrotation
						JOINT Neck1
						{
							OFFSET 0.00000 7.08032 0.00000
							CHANNELS 3 Zrotation Xrotation Yrotation
							JOINT Head
							{
								OFFSET 0.00000 7.08031 0.00000
								CHANNELS 3 Zrotation Xrotation Yrotation
								End site
								{
									OFFSET 0.00000 0.00000 0.00000
								}
							}
						}
					}
					JOINT RightShoulder
					{
						OFFSET -0.01000 7.91373 5.19711
						CHANNELS 3 Zrotation Xrotation Yrotation
						JOINT RightArm
						{
							OFFSET -18.41580 0.00000 0.00000
							CHANNELS 3 Zrotation Xrotation Yrotation
							JOINT RightForeArm
							{
								OFFSET -29.11090 0.00000 0.00000
								CHANNELS 3 Zrotation Xrotation Yrotation
								JOINT RightHand
								{
									OFFSET -24.65040 0.00000 0.00000
									CHANNELS 3 Zrotation Xrotation Yrotation
									JOINT RightHandThumb1
									{
										OFFSET -5.35114 -0.85590 3.97906
										CHANNELS 3 Zrotation Xrotation Yrotation
										JOINT RightHandThumb2
										{
											OFFSET -4.52789 0.00000 0.00000
											CHANNELS 3 Zrotation Xrotation Yrotation
											JOINT RightHandThumb3
											{
												OFFSET -2.46976 0.00000 0.00000
												CHANNELS 3 Zrotation Xrotation Yrotation
												End site
												{
													OFFSET 0.00000 0.00000 0.00000
												}
											}
										}
									}
									JOINT RightHandIndex1
									{
										OFFSET -14.26970 0.00000 2.88139
										CHANNELS 3 Zrotation Xrotation Yrotation
										JOINT RightHandIndex2
										{
											OFFSET -5.48836 0.00000 0.00000
											CHANNELS 3 Zrotation Xrotation Yrotation
											JOINT RightHandIndex3
											{
												OFFSET -3.01859 0.00000 0.00000
												CHANNELS 3 Zrotation Xrotation Yrotation
												End site
												{
													OFFSET 0.00000 0.00000 0.00000
												}
											}
										}
									}
									JOINT RightHandMiddle1
									{
										OFFSET -14.26970 0.00000 -0.09147
										CHANNELS 3 Zrotation Xrotation Yrotation
										JOINT RightHandMiddle2
										{
											OFFSET -6.17441 0.00000 0.00000
											CHANNELS 3 Zrotation Xrotation Yrotation
											JOINT RightHandMiddle3
											{
												OFFSET -3.56743 0.00000 0.00000
												CHANNELS 3 Zrotation Xrotation Yrotation
												End site
												{
													OFFSET 0.00000 0.00000 0.00000
												}
											}
										}
									}
									JOINT RightHandRing1
									{
										OFFSET -12.69180 0.00000 -3.06433
										CHANNELS 3 Zrotation Xrotation Yrotation
										JOINT RightHandRing2
										{
											OFFSET -5.62556 0.00000 0.00000
											CHANNELS 3 Zrotation Xrotation Yrotation
											JOINT RightHandRing3
											{
												OFFSET -3.56744 0.00000 0.00000
												CHANNELS 3 Zrotation Xrotation Yrotation
												End site
												{
													OFFSET 0.00000 0.00000 0.00000
												}
											}
										}
									}
									JOINT RightHandPinky1
									{
										OFFSET -11.11390 0.00000 -6.03719
										CHANNELS 3 Zrotation Xrotation Yrotation
										JOINT RightHandPinky2
										{
											OFFSET -4.52789 0.00000 0.00000
											CHANNELS 3 Zrotation Xrotation Yrotation
											JOINT RightHandPinky3
											{
												OFFSET -2.46976 0.00000 0.00000
												CHANNELS 3 Zrotation Xrotation Yrotation
												End site
												{
													OFFSET 0.00000 0.00000 0.00000
												}
											}
										}
									}
								}
							}
						}
					}
					JOINT LeftShoulder
					{
						OFFSET 0.01000 7.91373 5.19711
						CHANNELS 3 Zrotation Xrotation Yrotation
						JOINT LeftArm
						{
							OFFSET 18.41580 0.00000 0.00000
							CHANNELS 3 Zrotation Xrotation Yrotation
							JOINT LeftForeArm
							{
								OFFSET 29.11090 0.00000 0.00000
								CHANNELS 3 Zrotation Xrotation Yrotation
								JOINT LeftHand
								{
									OFFSET 24.65040 0.00000 0.00000
									CHANNELS 3 Zrotation Xrotation Yrotation
									JOINT LeftHandThumb1
									{
										OFFSET 5.35114 -0.85590 3.97906
										CHANNELS 3 Zrotation Xrotation Yrotation
										JOINT LeftHandThumb2
										{
											OFFSET 4.52789 0.00000 0.00000
											CHANNELS 3 Zrotation Xrotation Yrotation
											JOINT LeftHandThumb3
											{
												OFFSET 2.46977 0.00000 0.00000
												CHANNELS 3 Zrotation Xrotation Yrotation
												End site
												{
													OFFSET 0.00000 0.00000 0.00000
												}
											}
										}
									}
									JOINT LeftHandIndex1
									{
										OFFSET 14.26970 0.00000 2.88139
										CHANNELS 3 Zrotation Xrotation Yrotation
										JOINT LeftHandIndex2
										{
											OFFSET 5.48836 0.00000 0.00000
											CHANNELS 3 Zrotation Xrotation Yrotation
											JOINT LeftHandIndex3
											{
												OFFSET 3.01859 0.00000 0.00000
												CHANNELS 3 Zrotation Xrotation Yrotation
												End site
												{
													OFFSET 0.00000 0.00000 0.00000
												}
											}
										}
									}
									JOINT LeftHandMiddle1
									{
										OFFSET 14.26970 0.00000 -0.09147
										CHANNELS 3 Zrotation Xrotation Yrotation
										JOINT LeftHandMiddle2
										{
											OFFSET 6.17440 0.00000 0.00000
											CHANNELS 3 Zrotation Xrotation Yrotation
											JOINT LeftHandMiddle3
											{
												OFFSET 3.56744 0.00000 0.00000
												CHANNELS 3 Zrotation Xrotation Yrotation
												End site
												{
													OFFSET 0.00000 0.00000 0.00000
												}
											}
										}
									}
									JOINT LeftHandRing1
									{
										OFFSET 12.69180 0.00000 -3.06433
										CHANNELS 3 Zrotation Xrotation Yrotation
										JOINT LeftHandRing2
										{
											OFFSET 5.62556 0.00000 0.00000
											CHANNELS 3 Zrotation Xrotation Yrotation
											JOINT LeftHandRing3
											{
												OFFSET 3.56744 0.00000 0.00000
												CHANNELS 3 Zrotation Xrotation Yrotation
												End site
												{
													OFFSET 0.00000 0.00000 0.00000
												}
											}
										}
									}
									JOINT LeftHandPinky1
									{
										OFFSET 11.11390 0.00000 -6.03719
										CHANNELS 3 Zrotation Xrotation Yrotation
										JOINT LeftHandPinky2
										{
											OFFSET 4.52789 0.00000 0.00000
											CHANNELS 3 Zrotation Xrotation Yrotation
											JOINT LeftHandPinky3
											{
												OFFSET 2.46976 0.00000 0.00000
												CHANNELS 3 Zrotation Xrotation Yrotation
												End site
												{
													OFFSET 0.00000 0.00000 0.00000
												}
											}
										}
									}
								}
							}
						}
					}
					JOINT pCube4
					{
						OFFSET 0.00000 10.91090 1.10792
						CHANNELS 3 Zrotation Xrotation Yrotation
						End site
						{
							OFFSET 0.00000 0.00000 0.00000
						}
					}
				}
			}
		}
	}
	JOINT RightUpLeg
	{
		OFFSET -9.98441 0.00000 0.00000
		CHANNELS 3 Zrotation Xrotation Yrotation
		JOINT RightLeg
		{
			OFFSET 0.00000 -42.11790 0.00000
			CHANNELS 3 Zrotation Xrotation Yrotation
			JOINT RightFoot
			{
				OFFSET 0.00000 -45.00020 -0.00001
				CHANNELS 3 Zrotation Xrotation Yrotation
				JOINT RightForeFoot
				{
					OFFSET 0.00000 -3.74820 0.00000
					CHANNELS 3 Zrotation Xrotation Yrotation
					JOINT RightToeBase
					{
						OFFSET 0.00000 0.06325 14.43120
						CHANNELS 3 Zrotation Xrotation Yrotation
						End site
						{
							OFFSET 0.00000 0.00000 0.00000
						}
					}
				}
			}
		}
	}
	JOINT LeftUpLeg
	{
		OFFSET 9.98441 0.00000 0.00000
		CHANNELS 3 Zrotation Xrotation Yrotation
		JOINT LeftLeg
		{
			OFFSET 0.00000 -42.11800 0.00000
			CHANNELS 3 Zrotation Xrotation Yrotation
			JOINT LeftFoot
			{
				OFFSET 0.00000 -45.00070 0.00000
				CHANNELS 3 Zrotation Xrotation Yrotation
				JOINT LeftForeFoot
				{
					OFFSET 0.00000 -3.74824 0.00000
					CHANNELS 3 Zrotation Xrotation Yrotation
					JOINT LeftToeBase
					{
						OFFSET 0.00000 0.06325 14.43110
						CHANNELS 3 Zrotation Xrotation Yrotation
						End site
						{
							OFFSET 0.00000 0.00000 0.00000
						}
					}
				}
			}
		}
	}
}
MOTION
Frames: 4
Frame Time: 0.050000
-0.00705024450277742 -0.030806887884601522 -0.03823070397185138 -0.0042755534225493805 0.04497969365935195 0.002192109844051781 -1.9714465081694537 1.2440962384919412 -1.0179452685162749 -0.907715358935346 3.7240165251558066 0.40645179030087003 -1.176655244483815 -1.4297392608812927 -1.0893922797817304 0.6596217978175959 0.36923709689694495 -0.8294739353166973 0.6223369960828649 11.271836937963375 -2.1651066545417303 0.35140185408186997 -0.9474370962515882 -6.102408708876462 1.198860561688292 -16.52617039657826 -0.5067510919138997 -3.035171752129819 1.2686284337352793 -15.363422268216393 73.16357810593013 19.416608872543765 0.8835657831901652 1.3521712188352661 5.511334324852702 44.85570010246208 21.329076706749873 -0.0924898598179557 -4.298188156478654 4.545972788224297 -0.14822959617694118 -1.575413484780693 0.0184253126690686 0.0038566747759157757 -56.19144829370738 0.02083289621507523 -0.014682031543204386 -56.20397581697241 -38.772894179576184 0.02590204655721716 0.0075317676286318115 -0.0021087872152811076 0.022983588516295308 0.02713329583015339 -0.033339587816433085 -0.01001749388120125 0.026857722852369793 -36.69470726384643 -0.04403371653343685 -0.03752994569518831 -0.01769714042890532 0.011826557975649033 -0.03991888454653192 0.016098675789073664 -0.035884779365352906 0.01175703958090849 -19.774777277573868 -0.038193926477746026 -0.0064718640977167894 0.044662778671711936 -0.037866384772200355 0.04749777110574787 0.00311867965192067 0.016967307504410046 0.02271467186963468 24.049037006101912 0.018134077080786768 0.024656616018935804 28.898263762614963 -0.011358863298635155 0.03556056612121282 28.844761040036044 -0.0035545215871945553 0.004620157906554486 2.971716637894513 0.9143516902429889 12.979878592089289 -69.3377002991233 28.576794290398915 -5.17968020114768 4.120891702479317 -7.933206706316371 -49.072496580926945 -12.03674730657737 2.4262268677590315 -0.17086350443917359 -0.5100407924850101 0.112278200375258 -8.10886673090373 -0.024161259375689484 0.009002467121308184 44.58483544254499 -0.04182320540653461 -0.009414602402165736 44.60891377974347 12.417506569943042 -0.008161497965300052 -0.02004337237257951 -0.015271642769868898 0.038526515223531115 -0.04324125542319825 0.046990651097182354 -0.002003348779275228 0.032555582988007196 11.136924209310772 0.0275238334164315 0.003625478209605784 0.012878974293370569 0.0017920863046712167 0.032299648568169394 0.04152252794726396 0.02575812963304769 0.017867109228678454 4.786883132652774 -0.023535046289688322 -0.02751486763602951 0.0023371577073695287 0.004080773590170648 0.02524671039009698 -0.02009015738402764 0.037307102636130705 0.016229307185222863 -5.578110747058996 0.04739494414024722 -0.04095670939112107 -6.733719652985383 -0.023472375481298196 -0.013425262626578732 -6.740794830100933 -0.023269587158864947 0.01342355413127515 -0.015138478188088028 -0.040277150752127025 -0.004366194221122511 8.064290652250733 3.5069390088400088 -19.20808151661852 0.012872304822361076 10.43005393241844 0.006313319891350961 -5.6030848607558035 -15.657963118827341 3.192512874071736 -0.029350107564275592 -0.015384044653637529 -0.02391108989225045 0.006893609409211468 4.682340915382744 -0.024309611774094766 12.43552520006754 -8.244770516998763 6.919765097414103 -0.008298820604215135 46.37120470057562 -0.04600043268494908 -4.309340704250127 -14.761054035647463 -3.8062264897057725 -0.02512925262187542 0.04851639709890749 -0.034362303724864346 0.027234278851312035 -10.78556322164395 0.007232233443197007 
-0.018217814526229795 -0.005299616036004144 0.029344561398889857 -0.03178033937275126 -0.03457083827044329 -0.034482777871175374 -1.9701981358578646 1.254140091241063 -1.0353233595651732 -0.8818652697470345 3.7237512422988477 0.3446866153353197 -1.1224068726915781 -1.4857311857383653 -0.988594292278651 0.48313538470845946 0.365386915125511 -0.8186347934844841 0.4539667412134864 11.20849360855337 -1.7644387106541857 0.40158495590948373 -0.9892176876837858 -5.371879746494697 1.0567629698894285 -16.556463166405504 -0.44118466460390526 -2.9780872384709887 1.2843931214891338 -15.197849844493021 73.39261268898723 19.328475154637175 0.6398364928666189 1.7219871888273963 5.676151487280087 44.64898667952003 21.617273116804732 -0.06981711142799393 -4.261778000016496 4.515424787351689 -0.13701166454117947 -1.5991037645726218 -0.04469724028145137 -0.041183512418983 -56.24886766590395 0.004169361301906466 0.017910179757743658 -56.23742012158835 -38.75439717271116 -0.03385889704240406 -0.009699676183066124 -0.0067879718215367365 -0.012348343131924075 -0.01155068526583578 -0.004236221215740406 -0.028855025698513694 -0.040701413830502915 -36.73133460175562 -0.023037426304157404 -0.006642757754863994 -0.03529313898219469 -0.0336657615684187 0.019122019007051867 0.03671913391524872 -0.00019990399110691792 0.01627076830749088 -19.752292136625528 -0.010481437133255458 0.006235945676900585 -0.022028023442473114 0.013184678798525798 -0.017854171426271104 -0.03931221793170622 0.029373259730625354 -0.04014985267522414 24.044575089506548 0.025552975601609445 -0.026621638440234907 28.818503620706426 0.0014254505023662846 -0.013999295751759861 28.849525250186925 -0.006963146213235922 -0.009036808455380354 3.191031768898653 1.0034539617909106 12.970982830403067 -69.31030917093062 28.64708141503627 -5.48520421220698 3.351108747719168 -7.479505971092601 -49.10779467392224 -12.474471516980346 2.411520272462085 -0.1500984705057778 -0.47446094279661327 0.09484286382977532 -8.163812998802152 0.000926319289082773 0.03758862516232314 44.60161794381394 -0.006847396731787277 0.010757729088206948 44.54409781157016 12.435228116817877 -0.027874055331434555 -0.01509301699579375 0.02454713243723138 -0.04696108087549041 0.02949881793532307 0.014013034896352741 -0.018415772029024908 0.0486200238690259 11.065256502778798 -0.0034158725147471454 0.02279940543923501 0.007730611867784767 -0.027655227254079085 -0.018807975337996212 -0.013926601496360031 -0.015874325766943947 0.00836183427646332 4.808988391597168 0.013147464848285684 0.007007869491120217 0.00510262122571404 0.04912126108647785 -0.04629826312765986 0.00034338034068054325 -0.0023029238735259925 0.0009237635778461963 -5.616346780277257 0.019950650273376502 -0.0060069692563405825 -6.690022296825037 -0.03727466525659789 0.01366502652156215 -6.713190024147944 -0.005527100431753913 -0.040293452096068084 -0.03280892638074316 0.018821883678469434 -0.012817515993123701 8.02404550065627 3.4621167816723943 -19.22108280235827 -0.03457170362051113 10.387518659872569 0.043836895925249 -5.582903380005244 -15.660988087834651 3.1496844766497074 -0.04006128360522805 0.002565602265057139 0.03467230839814346 -0.017895890895401893 4.654998479070403 -0.0189237991302029 12.485000002784806 -8.223420938944274 6.892230876609038 0.007611036653799866 46.428766811982705 -0.046806830859737934 -4.332673984287696 -14.763937349198075 -3.8420633249329335 0.03556950050625884 0.0041485939175081735 -0.006013077623676859 0.01463573654523065 -10.701649808244575 -0.03776850506004838 
-0.009116022645391996 -0.033740716457016866 0.011128982974658875 0.035930360577277914 0.0411874045508413 0.031821017334411526 -1.9800999074235528 1.4445877281253898 -1.0283439669824528 -0.9445055264127412 3.6847234463889613 0.38453845486772437 -1.0911983944106678 -1.3847930060702929 -0.9573491142606876 0.436709518163929 0.3033789239584664 -0.7854543327113749 0.3495492718710399 11.085390217289666 -1.5375378757252753 0.33089013760223085 -1.036187106680293 -4.876294259466743 0.9255417692832578 -16.598024796794927 -0.4411688932457128 -2.848098073010309 1.2840682523002949 -15.105435262611755 73.38968680966097 18.818057266018947 0.7183192822550868 1.841762139787574 5.907995888184433 44.865847290688 21.655966702236746 -0.07468134723875237 -4.128032462900897 4.481860738629054 -0.10168981976592599 -1.577841819343519 0.021426638710717125 0.042395710142520214 -56.24079100676667 -0.03476773670669138 0.01116206822014488 -56.204990638811594 -38.790625103694516 -0.005093632577208106 -0.01605995953727738 0.015074734070822422 -0.011355299065195251 0.0016623302020320084 0.0312429942996418 0.02306279161491146 0.012760588520244594 -36.64816070143968 0.010880955046586628 0.0062865568942234535 0.004236606284879463 -0.023906289244148726 0.0385645872291144 -0.04486201160891109 0.023303988819530382 -0.03079962770497047 -19.747007850512365 0.037071140027101414 -0.0029557856703729102 0.014923854749786707 -0.04720646560032154 -0.03260181551228176 -0.02554802985175071 -0.0384713981222838 -0.012274672110036088 24.019113554984095 -0.041483070054699894 0.04422603012829823 28.825998579240462 -0.046324917482438874 -0.04804035486122721 28.91078300301652 0.02263893864123635 0.026556345151281305 3.2321162035365667 0.9746765437917315 12.952559992194164 -69.15374006163505 28.383423996849576 -5.9246589393253 3.0652609302659504 -7.059298506051027 -49.47857550573847 -12.766906358729136 2.3729276557375982 -0.1572766718145798 -0.4409958854486942 0.07712717862041125 -8.117843910517486 0.004261942395587415 -0.04197648090921799 44.58507295150071 0.003747170419451426 0.04334770405948465 44.52493354963038 12.454867530726922 -0.032558283070754056 0.046180000790202416 -0.00010890229183931555 0.04184773769104857 -0.0014398237152307963 0.019213718181801783 -0.03183397461551364 -0.018046043428971145 11.064810682600287 -0.04185809899956785 0.022039206189836413 -0.005739942288130159 0.028517488850490165 -0.03935843263196711 0.005085929252558065 0.026780148963140744 0.044075851014499456 4.772030464356461 0.012770316457789494 -0.01287715169401835 -0.0026357685915445457 -0.00665057737343294 -0.03866044278428368 -0.028116209577719667 0.012305046607515054 0.03304766425665508 -5.595773559228819 -0.02221885117188567 -0.013918152497033424 -6.748753843863441 0.028272686840107523 0.010675012240068017 -6.761445190614251 -0.008420415822120306 -0.011645580740382504 -0.02057820975616505 0.015387242369770317 0.03247193139388329 8.037199416168406 3.45439829116185 -19.217407172895808 0.028390254132017283 10.398578654440328 0.034184840263535896 -5.611032944872447 -15.649877229843634 3.180864628869569 0.0049151499945998605 -0.039268801474064946 -0.011813032945398483 0.04547063177385586 4.694353816001428 0.007149903482896812 12.443577998145923 -8.280713074348752 6.83341632374177 0.023687401265756837 46.37052157119518 0.01311286987044031 -4.323676766636348 -14.721932655759524 -3.856111424354868 0.004912617297873969 -0.011839469626913313 -0.038842941765241064 0.03484782337312354 -10.73263334298145 0.04886079132756936 
0.013384796991387947 0.037292202483137256 0.025722651729754038 0.019955760175704544 0.021629477500622364 -0.01917945910072444 -1.9547489318982194 1.6836694316995209 -1.0601856137583532 -0.9125418147990946 3.68641230932899 0.3662447161850018 -1.1085136378947344 -1.3311623026972634 -0.8116565775591166 0.34030080011017166 0.22063800791038068 -0.7653179066890998 0.253914658677189 10.935686356302963 -1.363318628714263 0.3490887732549181 -1.103661014420304 -4.5076537113699136 0.9457334644753707 -16.644321761356238 -0.44090250642383444 -2.5877252799152544 1.2206010572573307 -14.934284290323738 73.34614668925663 18.034920958739814 1.099596159200716 1.6320437558484864 6.147499208773581 45.43229734101195 21.647245878893347 -0.02871150335797553 -4.096231461635249 4.561275878391205 -0.10760946062034005 -1.6386231517817025 0.022107221958921473 -0.028587159783868322 -56.21419965115915 -0.02331896466665976 0.013943885208212329 -56.235945800307384 -38.78104281670708 -0.007767023034445429 0.032099480324583644 -0.022948141506462558 0.037111162515481015 -0.01551315421116521 0.04736162338027461 -0.0012762164868272995 -0.01878549421470512 -36.72127630692882 0.02557480681582045 -0.040282693794276375 -0.01762875639315276 0.04265984969464871 0.048166550497232265 -0.01707123008263771 0.021169328655963965 -0.020202210551270257 -19.747286640453684 -0.04849490734279159 -0.016995121618977267 -0.043597141490815006 0.007052315142491389 -0.009884854034437557 -0.019935181303360118 -0.0031617810243887235 -0.023931043685367265 24.07305579675166 -0.008695603294687198 -0.04859003009238096 28.84716314279533 0.030750723446454974 0.04061590968060001 28.85313405757782 0.048914945686709434 -0.014992915947292736 3.1501457976519314 0.9686815943707164 12.903995951972288 -69.05545170764478 27.99653084103959 -6.4515480280262745 3.20253382062273 -6.641280516541053 -50.17677223664839 -12.91584911244932 2.367626924483084 -0.22706530878647824 -0.5021241881650338 0.08410894899034535 -8.095729770272312 -0.029405707511226883 0.025282122452071728 44.557276943737406 0.013250045221522058 0.04498025757682944 44.52499475364054 12.445670266437384 -0.03470762974212779 -0.008548328860240253 -0.02627381403023663 -0.015708979769294355 -0.035154029229828715 0.012459628642916635 -0.0011908742460657116 -0.04745075338176341 11.125412844426625 -0.015670393951455138 -0.02083941003186986 0.0017697484311752084 -0.03636302755695132 0.003568294407864075 -0.005428726853010681 -0.019060366676008425 0.027307301104647297 4.792025046297805 -0.025187004707664256 -0.04726252494219379 0.0041987803886878745 -0.006367541256155831 -0.024816304261712843 0.03577925117781584 0.035681276186222695 0.02813727586291455 -5.567045538441797 -0.03773127555088886 0.03406013769886256 -6.718115518561386 -0.017511812935407697 0.013582166244398727 -6.713060738859123 -0.03660830664038858 0.008923603146417727 0.0001522804238135742 0.01898653550861896 -0.03797547053381674 8.045803152025274 3.5427327726826268 -19.179903093741927 0.01619562433342571 10.443739567168251 0.022196199770495355 -5.632497810828779 -15.653684719051693 3.181086489343963 -0.045813840703818415 0.007608318431311784 -0.04643576689823008 -0.008666911638366154 4.713051767776819 -0.003087087804602029 12.447185788328897 -8.19712654092586 6.920129636211535 0.024522508615280863 46.42131557718946 -0.007776048269833032 -4.293813782647026 -14.731850719685033 -3.8477589646969896 -0.013360459810274818 0.005794233572218426 -0.041737391426104234 0.04496099228776738 -10.718365568652372 -0.015350159897448699 
